<svg width="510" height="281" viewBox="0 0 510 281" fill="none" xmlns="http://www.w3.org/2000/svg">
<path d="M379.602 280C453.287 280 494.407 241 510 221.5V140L-3.05176e-05 163.5V223.5C-3.05176e-05 246.5 29.5568 280 79.8945 280C142.817 280 160.203 221.5 211.12 221.5C252.93 221.5 305.917 280 379.602 280Z" fill="#CD5378"/>
<path d="M379.602 280.5C453.287 280.5 494.407 241.5 510 222V110.5L-3.05176e-05 134V224C-3.05176e-05 247 29.5568 280.5 79.8945 280.5C142.817 280.5 160.203 222 211.12 222C252.93 222 305.917 280.5 379.602 280.5Z" fill="#DF3F8C"/>
<path d="M130.398 280C56.7127 280 15.5925 241 0 221.5V113L510 136.5V223.5C510 246.5 480.443 280 430.106 280C367.183 280 349.797 221.5 298.88 221.5C257.07 221.5 204.083 280 130.398 280Z" fill="#973150"/>
<path d="M130.398 280C56.7127 280 15.5925 241 0 221.5V140L510 163.5V223.5C510 246.5 480.443 280 430.106 280C367.183 280 349.797 221.5 298.88 221.5C257.07 221.5 204.083 280 130.398 280Z" fill="#973150"/>
<mask id="mask0_12_10" style="mask-type:alpha" maskUnits="userSpaceOnUse" x="0" y="90" width="510" height="190">
<path d="M130.398 280C56.7127 280 15.5925 241 0 221.5V90L510 113.5V223.5C510 246.5 480.443 280 430.106 280C367.183 280 349.797 221.5 298.88 221.5C257.07 221.5 204.083 280 130.398 280Z" fill="#973150"/>
</mask>
<g mask="url(#mask0_12_10)">
<path d="M88.0089 276C61.218 279.644 3.60145 281.5 -6.10914 276L-33 295.5L15.1795 312.5L72.3225 355L293.612 271L474.565 321V280.5C404.537 280.5 386.283 199 311.486 199C241.931 199 205.656 260 88.0089 276Z" fill="url(#paint0_linear_12_10)"/>
</g>
<path d="M0 64C0 28.6538 28.6538 0 64 0H446C481.346 0 510 28.6538 510 64V139H0V64Z" fill="#973150"/>
<defs>
<linearGradient id="paint0_linear_12_10" x1="220.782" y1="202" x2="220.782" y2="355" gradientUnits="userSpaceOnUse">
<stop stop-color="#BC5473"/>
<stop offset="0.746259" stop-color="#BC5473" stop-opacity="0"/>
</linearGradient>
</defs>
</svg>
